<?xml version="1.0" encoding="utf-8"?>
<svg xmlns="http://www.w3.org/2000/svg" viewBox="0 0 32 32">
  <path d="M9.081 0C4.073 0 0 4.073 0 9.081V22.92C0 27.927 4.073 32 9.081 32H22.92c5.007 0 9.08-4.073 9.08-9.081V9.08C32 4.073 27.927 0 22.919 0H9.08zm0 2.595H22.92a6.444 6.444 0 016.486 6.486V22.92a6.444 6.444 0 01-6.486 6.486H9.08a6.444 6.444 0 01-6.486-6.486V9.08A6.444 6.444 0 019.08 2.595zM24.65 5.189a1.73 1.73 0 100 3.46 1.73 1.73 0 000-3.46zM16 7.351c-4.761 0-8.649 3.888-8.649 8.649 0 4.761 3.888 8.649 8.649 8.649 4.761 0 8.649-3.888 8.649-8.649 0-4.761-3.888-8.649-8.649-8.649zm0 2.595A6.035 6.035 0 0122.054 16 6.035 6.035 0 0116 22.054 6.035 6.035 0 019.946 16 6.035 6.035 0 0116 9.946z"/>
</svg>